<svg width="555" height="113" viewBox="0 0 555 113" fill="none" xmlns="http://www.w3.org/2000/svg">
<path fill-rule="evenodd" clip-rule="evenodd" d="M105 0H73.1517V15.0685H90.0711V32.6891H105V0ZM55.7346 0H0V15.0685H40.8057V64.7945H90.0711V110H105V49.726H55.7346V0Z" fill="white"/>
<path d="M25.4366 77H42L16.2676 113H0L25.4366 77Z" fill="white"/>
<path d="M105 33V0H73V15.3H89.8889V33H105Z" fill="#80CB53"/>
<path d="M441.183 67.8074V55.776H462.18C467.579 55.776 471.744 54.407 474.674 51.6691C477.644 48.8926 479.128 44.9978 479.128 39.9847V39.869C479.128 34.8174 477.644 30.9226 474.674 28.1847C471.744 25.4468 467.579 24.0778 462.18 24.0778H441.183V11.9307H465.882C471.512 11.9307 476.448 13.0876 480.69 15.4013C484.97 17.715 488.306 20.9735 490.697 25.1768C493.088 29.3415 494.283 34.2197 494.283 39.8112V39.9269C494.283 45.4798 493.088 50.358 490.697 54.5612C488.306 58.726 484.97 61.9845 480.69 64.3368C476.448 66.6505 471.512 67.8074 465.882 67.8074H441.183ZM433.721 95.3987V11.9307H448.645V95.3987H433.721Z" fill="white"/>
<path d="M376.318 96.8447C368.181 96.8447 361.143 95.0902 355.205 91.581C349.305 88.0718 344.735 83.0973 341.496 76.6574C338.295 70.179 336.695 62.5244 336.695 53.6936V53.5779C336.695 44.7472 338.314 37.1118 341.554 30.6719C344.793 24.2321 349.363 19.2575 355.263 15.7484C361.201 12.2392 368.219 10.4846 376.318 10.4846C384.416 10.4846 391.415 12.2392 397.315 15.7484C403.253 19.2575 407.823 24.2321 411.024 30.6719C414.263 37.1118 415.882 44.7472 415.882 53.5779V53.6936C415.882 62.5244 414.263 70.179 411.024 76.6574C407.823 83.0973 403.273 88.0718 397.372 91.581C391.472 95.0902 384.454 96.8447 376.318 96.8447ZM376.318 83.9457C381.369 83.9457 385.707 82.7117 389.332 80.2437C392.957 77.7372 395.753 74.228 397.72 69.7162C399.686 65.1659 400.67 59.825 400.67 53.6936V53.5779C400.67 47.408 399.667 42.0671 397.662 37.5553C395.695 33.005 392.88 29.5151 389.217 27.0857C385.592 24.6177 381.292 23.3837 376.318 23.3837C371.382 23.3837 367.082 24.6177 363.418 27.0857C359.755 29.5151 356.921 32.9857 354.915 37.4975C352.91 42.0092 351.908 47.3694 351.908 53.5779V53.6936C351.908 59.8636 352.891 65.2237 354.858 69.7741C356.863 74.2858 359.697 77.7757 363.361 80.2437C367.024 82.7117 371.343 83.9457 376.318 83.9457ZM397.835 103.844L372.558 68.5015H387.366L412.585 103.844H397.835Z" fill="white"/>
<path d="M269.573 67.8074V55.776H290.571C295.969 55.776 300.134 54.407 303.065 51.6691C306.034 48.8926 307.519 44.9978 307.519 39.9847V39.869C307.519 34.8174 306.034 30.9226 303.065 28.1847C300.134 25.4468 295.969 24.0778 290.571 24.0778H269.573V11.9307H294.272C299.903 11.9307 304.839 13.0876 309.08 15.4013C313.361 17.715 316.696 20.9735 319.087 25.1768C321.478 29.3415 322.674 34.2197 322.674 39.8112V39.9269C322.674 45.4798 321.478 50.358 319.087 54.5612C316.696 58.726 313.361 61.9845 309.08 64.3368C304.839 66.6505 299.903 67.8074 294.272 67.8074H269.573ZM262.112 95.3987V11.9307H277.035V95.3987H262.112Z" fill="white"/>
<path d="M155.425 95.3987V11.9307H172.663L198.229 75.7319H198.634L224.201 11.9307H241.438V95.3987H228.019V35.9935H221.135L236.348 14.2444L203.493 95.3987H193.371L160.516 14.2444L175.728 35.9935H168.845V95.3987H155.425Z" fill="white"/>
<rect x="508" y="81" width="47" height="14" fill="#80CB53"/>
</svg>
